<svg width="412" height="421" viewBox="0 0 412 421" fill="none" xmlns="http://www.w3.org/2000/svg">
<mask id="mask0_4769_1363" style="mask-type:alpha" maskUnits="userSpaceOnUse" x="0" y="10" width="412" height="411">
<ellipse cx="206" cy="215.345" rx="205.575" ry="205.087" fill="white"/>
</mask>
<g mask="url(#mask0_4769_1363)">
<ellipse cx="206" cy="215.345" rx="205.575" ry="205.087" fill="#D0D9FF"/>
<ellipse cx="92.2339" cy="224.638" rx="1.33058" ry="1.32742" fill="#0D0DE6"/>
<ellipse cx="70.4194" cy="21.4373" rx="1.33058" ry="1.32742" fill="#0D0DE6"/>
<ellipse cx="37.2671" cy="304.393" rx="1.33058" ry="1.32742" fill="#0D0DE6"/>
<ellipse cx="137.473" cy="324.194" rx="0.665291" ry="0.663711" fill="#0D0DE6"/>
<ellipse cx="348.523" cy="25.1121" rx="1.33058" ry="1.32742" fill="#0D0DE6"/>
<ellipse cx="258.79" cy="67.8813" rx="1.84175" ry="1.83738" fill="#0D0DE6"/>
<ellipse cx="97.5562" cy="358.043" rx="1.33058" ry="1.32742" fill="#0D0DE6"/>
<ellipse cx="397.586" cy="90.5936" rx="0.665291" ry="0.663711" fill="#0D0DE6"/>
<ellipse cx="377.33" cy="275.327" rx="1.33058" ry="1.32742" fill="#0D0DE6"/>
<ellipse cx="237.352" cy="239.421" rx="0.665291" ry="0.663711" fill="#0D0DE6"/>
<ellipse cx="313.529" cy="183.126" rx="1.33058" ry="1.32742" fill="#0D0DE6"/>
<ellipse cx="382.185" cy="405.959" rx="1.84175" ry="1.83738" fill="#0D0DE6"/>
<ellipse cx="315.884" cy="402.284" rx="1.84175" ry="1.83738" fill="#0D0DE6"/>
<ellipse cx="255.106" cy="361.862" rx="1.84175" ry="1.83738" fill="#0D0DE6"/>
<ellipse cx="161.84" cy="197.162" rx="0.665291" ry="0.663711" fill="#0D0DE6"/>
<ellipse cx="181.435" cy="354.512" rx="1.84175" ry="1.83738" fill="#0D0DE6"/>
<ellipse cx="83.3101" cy="276.833" rx="1.33058" ry="1.32742" fill="#0D0DE6"/>
<ellipse cx="142.248" cy="139.029" rx="1.33058" ry="1.32742" fill="#0D0DE6"/>
<ellipse cx="201.694" cy="389.423" rx="1.84175" ry="1.83738" fill="#0D0DE6"/>
<ellipse cx="78.2632" cy="87.9134" rx="1.33058" ry="1.32742" fill="#0D0DE6"/>
<ellipse cx="28.3681" cy="53.3999" rx="2.4394" ry="2.43361" fill="#0D0DE6"/>
<ellipse cx="63.959" cy="156.608" rx="1.2197" ry="1.2168" fill="#0D0DE6"/>
<ellipse cx="145.791" cy="282.048" rx="1.2197" ry="1.2168" fill="#0D0DE6"/>
<ellipse cx="329.41" cy="296.651" rx="1.2197" ry="1.2168" fill="#0D0DE6"/>
<ellipse cx="380.97" cy="181.496" rx="2.4394" ry="2.43361" fill="#0D0DE6"/>
<ellipse cx="340.492" cy="345.989" rx="0.665291" ry="0.663711" fill="#0D0DE6"/>
<ellipse cx="409.302" cy="102.282" rx="1.33058" ry="1.32742" fill="#0D0DE6"/>
<ellipse cx="228.81" cy="148.216" rx="1.33058" ry="1.32742" fill="#0D0DE6"/>
<g clip-path="url(#clip0_4769_1363)">
<path opacity="0.4" d="M109.717 96.5241L108.922 94.622L107.015 93.829C106.973 93.8078 106.937 93.7752 106.912 93.7348C106.887 93.6944 106.874 93.6479 106.874 93.6004C106.874 93.5529 106.887 93.5063 106.912 93.466C106.937 93.4256 106.973 93.393 107.015 93.3718L108.922 92.5788L109.717 90.6766C109.738 90.6341 109.771 90.5984 109.811 90.5734C109.852 90.5484 109.898 90.5352 109.946 90.5352C109.994 90.5352 110.04 90.5484 110.081 90.5734C110.121 90.5984 110.154 90.6341 110.175 90.6766L110.97 92.5788L112.877 93.3718C112.919 93.393 112.955 93.4256 112.98 93.466C113.005 93.5063 113.019 93.5529 113.019 93.6004C113.019 93.6479 113.005 93.6944 112.98 93.7348C112.955 93.7752 112.919 93.8078 112.877 93.829L110.97 94.622L110.175 96.5241C110.154 96.5666 110.121 96.6024 110.081 96.6273C110.04 96.6523 109.994 96.6656 109.946 96.6656C109.898 96.6656 109.852 96.6523 109.811 96.6273C109.771 96.6024 109.738 96.5666 109.717 96.5241ZM110.175 100.893L110.97 102.795L112.877 103.588C112.919 103.609 112.955 103.642 112.98 103.682C113.005 103.722 113.019 103.769 113.019 103.817C113.019 103.864 113.005 103.911 112.98 103.951C112.955 103.991 112.919 104.024 112.877 104.045L110.97 104.838L110.175 106.74C110.154 106.783 110.121 106.818 110.081 106.843C110.04 106.868 109.994 106.882 109.946 106.882C109.898 106.882 109.852 106.868 109.811 106.843C109.771 106.818 109.738 106.783 109.717 106.74L108.922 104.838L107.015 104.045C106.973 104.024 106.937 103.991 106.912 103.951C106.887 103.911 106.874 103.864 106.874 103.817C106.874 103.769 106.887 103.722 106.912 103.682C106.937 103.642 106.973 103.609 107.015 103.588L108.922 102.795L109.717 100.893C109.738 100.85 109.771 100.815 109.811 100.79C109.852 100.765 109.898 100.751 109.946 100.751C109.994 100.751 110.04 100.765 110.081 100.79C110.121 100.815 110.154 100.85 110.175 100.893Z" fill="#FF4331"/>
<mask id="path-33-inside-1_4769_1363" fill="white">
<path d="M110.969 98.6971C110.969 98.6022 110.995 98.5092 111.045 98.4284C111.095 98.3477 111.166 98.2823 111.251 98.2396L114.854 96.4394L116.655 92.8391C116.829 92.4921 117.397 92.4921 117.571 92.8391L119.372 96.4394L122.974 98.2396C123.06 98.2819 123.132 98.3471 123.182 98.428C123.232 98.5089 123.259 98.6021 123.259 98.6973C123.259 98.7924 123.232 98.8857 123.182 98.9666C123.132 99.0474 123.06 99.1127 122.974 99.1549L119.372 100.955L117.571 104.555C117.528 104.64 117.463 104.712 117.382 104.761C117.301 104.811 117.208 104.838 117.113 104.838C117.018 104.838 116.925 104.811 116.844 104.761C116.763 104.712 116.697 104.64 116.655 104.555L114.854 100.955L111.251 99.1556C111.166 99.1128 111.095 99.0473 111.045 98.9663C110.995 98.8854 110.968 98.7922 110.969 98.6971Z"/>
</mask>
<path d="M110.969 98.6971C110.969 98.6022 110.995 98.5092 111.045 98.4284C111.095 98.3477 111.166 98.2823 111.251 98.2396L114.854 96.4394L116.655 92.8391C116.829 92.4921 117.397 92.4921 117.571 92.8391L119.372 96.4394L122.974 98.2396C123.06 98.2819 123.132 98.3471 123.182 98.428C123.232 98.5089 123.259 98.6021 123.259 98.6973C123.259 98.7924 123.232 98.8857 123.182 98.9666C123.132 99.0474 123.06 99.1127 122.974 99.1549L119.372 100.955L117.571 104.555C117.528 104.64 117.463 104.712 117.382 104.761C117.301 104.811 117.208 104.838 117.113 104.838C117.018 104.838 116.925 104.811 116.844 104.761C116.763 104.712 116.697 104.64 116.655 104.555L114.854 100.955L111.251 99.1556C111.166 99.1128 111.095 99.0473 111.045 98.9663C110.995 98.8854 110.968 98.7922 110.969 98.6971Z" fill="#FF4331"/>
<path d="M110.969 98.6971L109.448 98.6963L109.448 98.6956L110.969 98.6971ZM111.251 98.2396L110.569 96.8809L110.572 96.8796L111.251 98.2396ZM114.854 96.4394L116.214 97.1196L115.987 97.5728L115.533 97.7994L114.854 96.4394ZM116.655 92.8391L115.295 92.1589L115.296 92.1574L116.655 92.8391ZM117.571 92.8391L118.93 92.1584L118.93 92.1589L117.571 92.8391ZM119.372 96.4394L118.692 97.7994L118.239 97.5728L118.012 97.1196L119.372 96.4394ZM122.974 98.2396L122.3 99.6025L122.295 99.5996L122.974 98.2396ZM123.259 98.6973H124.779H123.259ZM122.974 99.1549L122.295 97.7949L122.3 97.7921L122.974 99.1549ZM119.372 100.955L118.012 100.275L118.239 99.8218L118.692 99.5952L119.372 100.955ZM117.571 104.555L118.93 105.236L118.93 105.237L117.571 104.555ZM116.655 104.555L115.296 105.237L115.295 105.236L116.655 104.555ZM114.854 100.955L115.533 99.5951L115.987 99.8216L116.214 100.275L114.854 100.955ZM111.251 99.1556L110.572 100.516L110.569 100.514L111.251 99.1556ZM109.448 98.6956C109.449 98.3186 109.554 97.9492 109.752 97.6288L112.338 99.228C112.436 99.0692 112.489 98.8859 112.489 98.6986L109.448 98.6956ZM109.752 97.6288C109.95 97.3084 110.233 97.0497 110.569 96.8809L111.934 99.5984C112.1 99.515 112.24 99.3869 112.338 99.228L109.752 97.6288ZM110.572 96.8796L114.174 95.0793L115.533 97.7994L111.931 99.5996L110.572 96.8796ZM113.494 95.7591L115.295 92.1589L118.015 93.5193L116.214 97.1196L113.494 95.7591ZM115.296 92.1574C115.7 91.3514 116.498 91.0585 117.113 91.0585C117.728 91.0585 118.526 91.3515 118.93 92.1584L116.211 93.5199C116.442 93.9798 116.869 94.0992 117.113 94.0992C117.357 94.0992 117.784 93.9798 118.014 93.5209L115.296 92.1574ZM118.93 92.1589L120.732 95.7591L118.012 97.1196L116.211 93.5193L118.93 92.1589ZM120.051 95.0793L123.654 96.8796L122.295 99.5996L118.692 97.7994L120.051 95.0793ZM123.648 96.8768C123.987 97.0445 124.273 97.3035 124.473 97.6251L121.891 99.2309C121.99 99.3908 122.132 99.5193 122.3 99.6024L123.648 96.8768ZM124.473 97.6251C124.673 97.9468 124.779 98.3182 124.779 98.6973H121.738C121.738 98.8861 121.791 99.0709 121.891 99.2309L124.473 97.6251ZM124.779 98.6973C124.779 99.0764 124.673 99.4478 124.473 99.7695L121.891 98.1637C121.791 98.3236 121.738 98.5085 121.738 98.6973H124.779ZM124.473 99.7695C124.273 100.091 123.987 100.35 123.648 100.518L122.3 97.7921C122.132 97.8752 121.99 98.0038 121.891 98.1637L124.473 99.7695ZM123.654 100.515L120.051 102.315L118.692 99.5952L122.295 97.7949L123.654 100.515ZM120.732 101.635L118.93 105.236L116.211 103.875L118.012 100.275L120.732 101.635ZM118.93 105.237C118.761 105.574 118.501 105.858 118.18 106.056L116.584 103.467C116.425 103.565 116.296 103.706 116.212 103.874L118.93 105.237ZM118.18 106.056C117.859 106.254 117.489 106.358 117.113 106.358V103.317C116.926 103.317 116.743 103.369 116.584 103.467L118.18 106.056ZM117.113 106.358C116.736 106.358 116.367 106.254 116.046 106.056L117.642 103.467C117.482 103.369 117.299 103.317 117.113 103.317V106.358ZM116.046 106.056C115.725 105.858 115.465 105.574 115.296 105.237L118.014 103.874C117.93 103.706 117.801 103.565 117.642 103.467L116.046 106.056ZM115.295 105.236L113.494 101.635L116.214 100.275L118.015 103.875L115.295 105.236ZM114.174 102.315L110.572 100.516L111.931 97.7955L115.533 99.5951L114.174 102.315ZM110.569 100.514C110.232 100.345 109.949 100.086 109.751 99.7647L112.339 98.1679C112.241 98.0089 112.1 97.8806 111.934 97.7971L110.569 100.514ZM109.751 99.7647C109.553 99.4438 109.448 99.0739 109.448 98.6963L112.489 98.6979C112.489 98.5105 112.437 98.327 112.339 98.1679L109.751 99.7647Z" fill="#FF4331" mask="url(#path-33-inside-1_4769_1363)"/>
</g>
<path d="M580.059 659.368C580.059 836.505 436.12 980.104 258.559 980.104C80.9974 980.104 -62.9424 836.505 -62.9424 659.368C-62.9424 482.232 80.9974 338.632 258.559 338.632C436.12 338.632 580.059 482.232 580.059 659.368Z" fill="#F1F3FF" stroke="#0D0DE6"/>
<path d="M314.083 378.743C314.083 382.952 310.663 386.365 306.441 386.365C302.22 386.365 298.8 382.952 298.8 378.743C298.8 374.535 302.22 371.121 306.441 371.121C310.663 371.121 314.083 374.535 314.083 378.743Z" fill="#D0D9FF" stroke="#0D0DE6"/>
<path d="M256.836 422.603C256.836 439.821 242.845 453.78 225.583 453.78C208.322 453.78 194.331 439.821 194.331 422.603C194.331 405.386 208.322 391.427 225.583 391.427C242.845 391.427 256.836 405.386 256.836 422.603Z" fill="#D0D9FF" stroke="#0D0DE6"/>
<path d="M141.925 398.747C141.925 406.096 135.953 412.055 128.584 412.055C121.215 412.055 115.243 406.096 115.243 398.747C115.243 391.398 121.215 385.439 128.584 385.439C135.953 385.439 141.925 391.398 141.925 398.747Z" fill="#D0D9FF" stroke="#0D0DE6"/>
<path d="M74.0823 204.063C74.0823 208.153 70.7579 211.472 66.6544 211.472C62.5508 211.472 59.2265 208.153 59.2265 204.063C59.2265 199.972 62.5508 196.654 66.6544 196.654C70.7579 196.654 74.0823 199.972 74.0823 204.063Z" fill="#0505B8" stroke="#D0D9FF" stroke-width="1.11122"/>
<path d="M59.0037 204.862C53.1442 206.647 49.1656 208.186 49.3037 208.701C49.4939 209.409 57.4163 207.906 66.9989 205.345C76.5815 202.783 84.1955 200.133 84.0053 199.425C83.8669 198.909 79.631 199.565 73.6401 200.948" stroke="#535EFC"/>
<path d="M52.9839 210.036C57.9736 209.372 61.6327 208.483 67.4212 206.936C73.9406 205.193 76.9345 204.394 81.2588 202.735" stroke="#0D0DE6" stroke-linecap="round"/>
<path d="M52.4229 205.298C53.3174 204.954 54.1551 204.648 54.9788 204.362C55.5352 204.169 56.0852 203.986 56.6422 203.807" stroke="#0D0DE6" stroke-linecap="round"/>
<path d="M74.3115 199.054C74.6684 198.981 75.0162 198.912 75.3576 198.846M80.0787 198.088C79.461 198.168 78.8612 198.253 78.264 198.344C77.9315 198.395 77.5997 198.448 77.2661 198.504" stroke="#0D0DE6" stroke-linecap="round"/>
<path d="M227.841 67.0149H298.797L325.077 409.543H201.562L227.841 67.0149Z" fill="url(#paint0_linear_4769_1363)"/>
<path d="M227.842 67.0151H255.968L241.999 310.525H209.282L227.842 67.0151Z" fill="url(#paint1_linear_4769_1363)"/>
<path d="M298.429 67.0151H270.303L284.272 310.525H316.989L298.429 67.0151Z" fill="url(#paint2_linear_4769_1363)"/>
<ellipse cx="259.669" cy="355.934" rx="75.0177" ry="7.99812" fill="#D0D9FF"/>
<ellipse cx="255.829" cy="357.077" rx="28.8011" ry="2.39439" fill="#535EFC"/>
<path d="M252.666 345.928L252.316 345.556L251.951 345.914C251.928 345.936 251.862 345.983 251.714 346.032C251.571 346.08 251.379 346.12 251.137 346.147C250.652 346.202 250.016 346.202 249.267 346.148C247.77 346.04 245.884 345.723 243.978 345.263C242.072 344.802 240.166 344.203 238.628 343.537C237.858 343.204 237.191 342.858 236.665 342.512C236.132 342.16 235.78 341.83 235.599 341.54C234.876 340.386 234.098 339.863 233.21 339.975C232.805 340.026 232.439 340.206 232.117 340.412C231.796 340.617 231.482 340.874 231.192 341.112L231.189 341.115C230.567 341.624 230.058 342.028 229.539 342.137C229.303 342.186 229.063 342.172 228.799 342.057C228.525 341.938 228.2 341.698 227.826 341.255L227.131 340.432L226.95 341.492L227.443 341.576C226.95 341.492 226.95 341.492 226.95 341.493L226.95 341.493L226.949 341.495L226.949 341.5L226.945 341.521C226.942 341.538 226.938 341.563 226.933 341.596C226.924 341.661 226.91 341.755 226.895 341.873C226.864 342.109 226.826 342.444 226.797 342.84C226.738 343.629 226.711 344.681 226.85 345.699C226.987 346.7 227.294 347.754 227.973 348.462C228.697 349.216 229.751 349.489 231.14 349.09C232.376 348.735 233.178 348.618 233.678 348.638C234.169 348.658 234.228 348.797 234.237 348.818C234.237 348.818 234.237 348.818 234.238 348.819C234.277 348.909 234.28 349.116 234.15 349.505C234.051 349.804 233.906 350.119 233.755 350.447C233.721 350.522 233.686 350.597 233.652 350.673C233.539 350.922 233.558 351.189 233.699 351.415C233.818 351.608 234.004 351.738 234.17 351.829C234.507 352.013 234.989 352.154 235.513 352.275C236.285 352.451 237.268 352.607 238.263 352.764C238.634 352.823 239.008 352.882 239.372 352.942C240.75 353.171 241.987 353.419 242.714 353.743C243.094 353.912 243.193 354.042 243.208 354.076C243.207 354.08 243.205 354.087 243.201 354.098C243.183 354.142 243.132 354.228 242.997 354.355C242.655 354.677 242.38 355.022 242.321 355.39C242.288 355.599 242.327 355.809 242.448 355.991C242.561 356.161 242.721 356.27 242.869 356.341C243.157 356.478 243.53 356.533 243.896 356.554C244.276 356.576 244.707 356.563 245.147 356.532C246.029 356.469 246.987 356.327 247.72 356.201C248.088 356.139 248.401 356.08 248.623 356.037C248.734 356.015 248.822 355.997 248.882 355.985L248.952 355.97L248.971 355.967L248.976 355.966L248.977 355.965L248.977 355.965C248.977 355.965 248.977 355.965 248.873 355.477L248.977 355.965L249.077 355.944L249.16 355.886L253.708 352.717L257.391 352.056L258.299 351.893L257.666 351.222L252.666 345.928Z" fill="url(#paint3_linear_4769_1363)" stroke="#D1D5DB"/>
<path d="M276.638 331.068L276.498 331.558L276.992 331.687C277.023 331.696 277.098 331.728 277.215 331.83C277.33 331.928 277.462 332.072 277.61 332.265C277.905 332.653 278.231 333.198 278.569 333.868C279.242 335.205 279.935 336.984 280.515 338.853C281.094 340.722 281.554 342.663 281.769 344.322C281.876 345.153 281.921 345.901 281.892 346.529C281.862 347.166 281.758 347.637 281.602 347.941C280.426 350.223 280.301 350.821 280.338 351.483C280.341 351.525 280.344 351.566 280.346 351.607C280.361 351.824 280.375 352.029 280.323 352.397C280.259 352.847 280.093 353.542 279.685 354.72L279.616 354.919L279.71 355.107L280.158 354.883C279.71 355.107 279.711 355.108 279.711 355.108L279.711 355.109L279.712 355.111L279.715 355.116L279.721 355.127C279.725 355.135 279.731 355.144 279.737 355.155C279.75 355.176 279.767 355.203 279.788 355.233C279.831 355.292 279.894 355.367 279.98 355.444C280.154 355.601 280.418 355.76 280.79 355.822C281.526 355.944 282.561 355.671 284.033 354.569C284.462 354.248 284.847 353.766 285.197 353.204C285.55 352.638 285.886 351.961 286.204 351.224C286.841 349.749 287.428 347.99 287.965 346.294C288.126 345.785 288.282 345.284 288.434 344.796C288.791 343.648 289.123 342.58 289.435 341.694C289.656 341.064 289.86 340.547 290.047 340.171C290.141 339.983 290.224 339.843 290.295 339.747C290.361 339.658 290.396 339.634 290.396 339.634C290.396 339.634 290.395 339.634 290.392 339.635C290.669 339.498 290.879 339.283 290.969 338.99C291.053 338.715 291.008 338.444 290.934 338.225C290.791 337.799 290.469 337.364 290.204 337.031C290.128 336.936 290.047 336.837 289.973 336.746C290.112 336.666 290.213 336.553 290.285 336.439C290.448 336.181 290.51 335.84 290.534 335.517C290.584 334.846 290.485 333.936 290.303 333.003C290.119 332.061 289.844 331.06 289.521 330.197C289.205 329.356 288.817 328.572 288.378 328.134C287.87 327.628 287.198 327.535 286.577 327.613C285.959 327.69 285.32 327.941 284.762 328.219C284.198 328.5 283.685 328.826 283.316 329.079C283.253 329.123 283.193 329.164 283.138 329.203L279.529 323.925L278.927 323.045L278.635 324.071L276.638 331.068Z" fill="url(#paint4_linear_4769_1363)" stroke="#D1D5DB"/>
<path d="M249.856 331.068L249.996 331.558L249.502 331.687C249.471 331.696 249.397 331.728 249.279 331.83C249.164 331.928 249.032 332.072 248.884 332.265C248.589 332.653 248.263 333.198 247.926 333.868C247.252 335.205 246.559 336.984 245.979 338.853C245.4 340.722 244.94 342.663 244.725 344.322C244.618 345.153 244.573 345.901 244.603 346.529C244.632 347.166 244.736 347.637 244.892 347.941C246.068 350.223 246.193 350.821 246.156 351.483C246.153 351.525 246.151 351.566 246.148 351.607C246.133 351.824 246.119 352.029 246.171 352.397C246.235 352.847 246.401 353.542 246.809 354.72L246.878 354.919L246.784 355.107L246.336 354.883C246.784 355.107 246.784 355.108 246.783 355.108L246.783 355.109L246.782 355.111L246.779 355.116L246.773 355.127C246.769 355.135 246.764 355.144 246.757 355.155C246.744 355.176 246.728 355.203 246.706 355.233C246.663 355.292 246.6 355.367 246.515 355.444C246.34 355.601 246.076 355.76 245.704 355.822C244.968 355.944 243.933 355.671 242.461 354.569C242.032 354.248 241.647 353.766 241.297 353.204C240.944 352.638 240.608 351.961 240.29 351.224C239.653 349.749 239.066 347.99 238.529 346.294C238.368 345.785 238.212 345.284 238.061 344.796C237.703 343.648 237.371 342.58 237.059 341.694C236.838 341.064 236.634 340.547 236.447 340.171C236.353 339.983 236.27 339.843 236.199 339.747C236.133 339.658 236.098 339.634 236.098 339.634C236.098 339.634 236.099 339.634 236.102 339.635C235.825 339.498 235.615 339.283 235.525 338.99C235.441 338.715 235.486 338.444 235.56 338.225C235.703 337.799 236.025 337.364 236.29 337.031C236.366 336.936 236.447 336.837 236.522 336.746C236.382 336.666 236.281 336.553 236.209 336.439C236.046 336.181 235.984 335.84 235.96 335.517C235.91 334.846 236.009 333.936 236.191 333.003C236.375 332.061 236.65 331.06 236.974 330.197C237.289 329.356 237.677 328.572 238.116 328.134C238.624 327.628 239.296 327.535 239.917 327.613C240.535 327.69 241.174 327.941 241.733 328.219C242.296 328.5 242.809 328.826 243.178 329.079C243.241 329.123 243.301 329.164 243.356 329.203L246.965 323.925L247.567 323.045L247.859 324.071L249.856 331.068Z" fill="url(#paint5_linear_4769_1363)" stroke="#D1D5DB"/>
<path d="M251.645 358.236L251.729 358.204L251.729 358.204L251.73 358.204L251.732 358.203L251.743 358.199L251.789 358.183C251.831 358.168 251.893 358.146 251.976 358.117C252.142 358.06 252.389 357.978 252.708 357.879C253.345 357.682 254.272 357.418 255.42 357.153C257.719 356.624 260.898 356.096 264.426 356.096C267.951 356.096 270.584 356.623 272.327 357.145C273.199 357.406 273.849 357.666 274.277 357.858C274.491 357.954 274.65 358.033 274.753 358.087C274.804 358.114 274.842 358.135 274.866 358.148L274.891 358.162L274.895 358.165L274.896 358.165L274.896 358.165L274.896 358.166L275.014 358.236H275.152H281.757C283.977 358.236 285.367 355.837 284.264 353.911L283.768 353.045C283.596 352.745 283.531 352.46 283.583 352.216C283.702 351.654 283.965 351.166 284.51 351.098C284.663 351.079 284.823 351.029 284.962 350.923C285.106 350.814 285.197 350.669 285.245 350.517C285.332 350.239 285.275 349.943 285.207 349.714C285.063 349.237 284.741 348.658 284.431 348.139C284.303 347.924 284.177 347.72 284.059 347.528C283.933 347.324 283.816 347.134 283.714 346.961C283.83 346.983 283.959 347 284.091 347C284.364 347 284.651 346.928 284.927 346.722C285.19 346.525 285.412 346.229 285.61 345.832C285.767 345.521 285.774 345.096 285.746 344.703C285.716 344.281 285.633 343.776 285.519 343.232C285.291 342.142 284.929 340.833 284.572 339.585C284.489 339.299 284.408 339.016 284.328 338.739C284.057 337.802 283.808 336.938 283.637 336.257C283.549 335.904 283.486 335.617 283.452 335.404C283.762 335.396 284.127 335.374 284.457 335.309C284.707 335.259 284.985 335.175 285.213 335.018C285.459 334.848 285.663 334.574 285.663 334.194C285.663 334.087 285.64 333.971 285.618 333.881C285.595 333.78 285.562 333.663 285.523 333.537C285.454 333.307 285.36 333.021 285.256 332.705L285.225 332.611C284.99 331.897 284.705 331.021 284.486 330.149C284.266 329.268 284.125 328.435 284.155 327.797C284.186 327.136 284.38 326.896 284.606 326.821C285.375 326.566 285.771 325.891 285.945 325.14C286.118 324.391 286.097 323.472 285.966 322.522C285.703 320.616 284.97 318.423 284.18 316.849C283.122 314.737 281.538 313.228 280.313 312.132C280.443 312.155 280.574 312.178 280.706 312.198C281.262 312.285 281.871 312.352 282.356 312.312C282.593 312.292 282.857 312.243 283.076 312.115C283.325 311.97 283.518 311.716 283.518 311.365C283.518 311.11 283.4 310.879 283.286 310.706C283.164 310.521 282.998 310.329 282.811 310.139C282.435 309.758 281.922 309.332 281.356 308.898C280.277 308.071 278.952 307.176 277.892 306.461C277.838 306.424 277.785 306.388 277.732 306.353C277.014 305.867 276.784 304.946 277.181 304.152L278.137 302.246C278.222 302.386 278.318 302.527 278.426 302.657C278.617 302.888 278.868 303.118 279.192 303.252C279.528 303.392 279.909 303.414 280.316 303.279C280.757 303.132 281.062 302.77 281.275 302.377C281.492 301.977 281.652 301.475 281.774 300.93C282.019 299.836 282.132 298.462 282.177 297.114C282.237 295.317 282.176 293.471 282.129 292.371C282.14 292.381 282.151 292.39 282.162 292.399C282.452 292.64 282.849 292.909 283.316 292.987C283.824 293.071 284.34 292.918 284.802 292.458C285.104 292.156 285.232 291.688 285.291 291.233C285.353 290.753 285.351 290.172 285.305 289.537C285.213 288.264 284.939 286.699 284.578 285.126C284.217 283.55 283.766 281.951 283.313 280.608C282.867 279.282 282.402 278.154 282.004 277.558C281.895 277.395 281.804 277.105 281.766 276.655C281.729 276.217 281.746 275.679 281.806 275.064C281.926 273.835 282.211 272.366 282.524 270.895C282.618 270.454 282.714 270.012 282.809 269.577C283.028 268.575 283.238 267.612 283.387 266.789C283.495 266.198 283.574 265.66 283.602 265.218C283.617 264.996 283.619 264.787 283.602 264.601C283.586 264.421 283.55 264.227 283.465 264.057C283.244 263.615 282.777 263.588 282.485 263.627C282.172 263.668 281.808 263.805 281.434 263.984C280.672 264.346 279.702 264.958 278.675 265.672C276.684 267.056 274.404 268.875 272.849 270.181C272.844 270.174 272.839 270.166 272.834 270.158C272.634 269.856 272.35 269.164 272.067 267.75C271.915 266.993 272.113 266.65 272.326 266.457C272.586 266.222 272.976 266.108 273.383 266.018C273.413 266.011 273.444 266.005 273.476 265.998C273.63 265.965 273.808 265.926 273.936 265.879C274.006 265.853 274.158 265.793 274.27 265.655C274.336 265.574 274.391 265.465 274.401 265.332C274.41 265.203 274.376 265.094 274.337 265.016C274.266 264.876 274.152 264.774 274.069 264.708C273.975 264.633 273.857 264.556 273.721 264.474C273.447 264.31 273.053 264.102 272.515 263.834C271.261 263.208 270.133 263.424 269.203 264.03C268.306 264.614 267.589 265.559 267.042 266.422C266.766 266.859 266.525 267.287 266.323 267.657C266.296 267.705 266.271 267.751 266.246 267.796C266.008 266.951 265.409 266.155 264.728 265.47C263.826 264.562 262.68 263.749 261.682 263.142C260.74 262.57 259.635 263.296 259.635 264.327C259.635 264.625 259.347 264.793 259.104 264.674C259.024 264.635 258.944 264.596 258.863 264.557C258.127 264.197 257.337 263.811 256.757 263.6C256.593 263.54 256.434 263.49 256.288 263.458C256.155 263.428 255.981 263.402 255.812 263.433C255.722 263.449 255.605 263.487 255.498 263.576C255.384 263.672 255.315 263.8 255.289 263.934C255.245 264.164 255.332 264.375 255.398 264.505C255.662 265.032 255.824 265.69 255.868 266.438C255.905 267.047 255.58 267.429 255.1 267.59C254.594 267.761 253.914 267.676 253.363 267.247C250.861 265.306 249.318 264.613 248.367 264.422C247.852 264.318 247.414 264.508 247.136 264.867C246.881 265.198 246.785 265.635 246.8 266.046C246.873 267.998 247.055 272.348 247.348 275.762C247.406 276.444 247.09 277.13 246.539 277.636C243.557 280.375 242.935 284.076 243.124 287.035C243.218 288.518 243.517 289.836 243.839 290.791C243.999 291.267 244.17 291.666 244.331 291.955C244.411 292.097 244.498 292.231 244.592 292.335C244.638 292.388 244.698 292.446 244.772 292.495C244.842 292.541 244.962 292.604 245.118 292.604C245.303 292.604 245.451 292.526 245.543 292.466C245.641 292.401 245.731 292.319 245.808 292.238C245.964 292.076 246.127 291.861 246.287 291.633C246.475 291.365 246.688 291.036 246.901 290.706C247.043 290.486 247.186 290.266 247.322 290.063C247.684 289.52 248.006 289.088 248.259 288.872C248.26 288.871 248.261 288.871 248.262 288.87C248.263 288.886 248.263 288.905 248.264 288.925C248.266 289.05 248.253 289.217 248.223 289.427C248.161 289.848 248.036 290.391 247.865 291.026C247.582 292.073 247.186 293.323 246.778 294.609C246.692 294.882 246.605 295.157 246.518 295.431C246.028 296.988 245.551 298.549 245.289 299.768C245.158 300.374 245.073 300.926 245.075 301.364C245.076 301.582 245.098 301.803 245.164 301.999C245.232 302.197 245.364 302.416 245.61 302.539C246.044 302.755 246.536 302.713 246.978 302.585C247.847 302.332 248.815 302.354 249.57 302.647C250.311 302.934 250.806 303.458 250.891 304.224L250.93 304.57C250.993 305.14 250.793 305.712 250.389 306.135C249.312 307.262 247.891 308.834 246.736 310.319C246.16 311.061 245.641 311.791 245.265 312.44C245.076 312.764 244.918 313.077 244.806 313.366C244.696 313.651 244.618 313.943 244.618 314.219C244.618 314.811 244.765 315.31 245.193 315.571C245.572 315.802 246.02 315.735 246.273 315.693C246.347 315.681 246.406 315.67 246.459 315.66C246.527 315.648 246.586 315.637 246.656 315.627C246.7 315.62 246.735 315.616 246.763 315.615C246.763 315.624 246.763 315.634 246.763 315.646C246.763 315.834 246.703 316.086 246.56 316.408C246.42 316.726 246.214 317.082 245.955 317.467C245.436 318.239 244.738 319.084 244.023 319.923C243.859 320.114 243.694 320.306 243.531 320.497C242.988 321.127 242.461 321.741 242.042 322.281C241.768 322.634 241.528 322.971 241.354 323.275C241.191 323.56 241.043 323.889 241.043 324.207C241.043 324.653 241.158 325.001 241.387 325.268C241.588 325.502 241.846 325.63 242.012 325.713L242.035 325.724C242.228 325.821 242.312 325.87 242.37 325.937C242.409 325.982 242.473 326.08 242.473 326.347C242.473 327.007 242.303 328.213 242.036 329.548C241.77 330.873 241.417 332.278 241.069 333.322C240.988 333.563 240.994 333.818 241.03 334.051C241.065 334.288 241.138 334.543 241.227 334.805C241.359 335.194 241.547 335.646 241.747 336.129C241.814 336.288 241.881 336.451 241.949 336.616C242.505 337.977 243.102 339.601 243.189 341.353C243.272 343.025 242.525 344.885 241.743 346.483C241.55 346.877 241.359 347.249 241.18 347.596L241.166 347.623C240.994 347.957 240.833 348.269 240.7 348.546C240.565 348.826 240.448 349.091 240.378 349.319C240.343 349.434 240.314 349.556 240.305 349.678C240.296 349.795 240.302 349.956 240.381 350.113C240.505 350.361 240.674 350.557 240.888 350.692C241.099 350.827 241.326 350.884 241.539 350.9C241.944 350.93 242.364 350.812 242.663 350.726C242.685 350.72 242.707 350.714 242.728 350.708C242.863 350.669 242.976 350.637 243.08 350.614C243.123 350.604 243.159 350.598 243.188 350.593C243.188 350.596 243.188 350.599 243.188 350.602C243.188 350.661 243.166 350.787 243.092 350.993C243.022 351.191 242.916 351.429 242.779 351.7C242.505 352.241 242.125 352.881 241.706 353.54C240.456 355.504 241.782 358.236 244.182 358.236H251.554H251.645ZM283.419 346.378C283.419 346.379 283.42 346.382 283.42 346.386C283.42 346.385 283.42 346.385 283.42 346.384C283.419 346.381 283.419 346.379 283.418 346.378C283.419 346.378 283.419 346.378 283.419 346.378ZM273.479 265.519C273.479 265.519 273.478 265.518 273.477 265.517L273.479 265.519ZM273.603 264.935C273.603 264.935 273.6 264.937 273.594 264.939C273.599 264.936 273.602 264.935 273.603 264.935Z" fill="url(#paint6_linear_4769_1363)" stroke="#D1D5DB" stroke-linecap="round"/>
<path d="M250.554 274.264C249.745 274.264 249.124 268.557 249.124 267.13L251.984 268.557C253.415 269.271 254.845 270.697 254.845 270.697C252.699 271.411 250.554 274.264 250.554 274.264Z" fill="url(#paint7_linear_4769_1363)"/>
<path d="M275.583 271.411C275.583 270.269 279.396 267.844 281.303 267.13V267.131C281.303 267.702 281.303 270.698 279.873 274.264C278.443 272.838 275.583 272.124 275.583 271.411Z" fill="url(#paint8_linear_4769_1363)"/>
<path d="M269.862 295.667C269.862 293.527 261.281 292.1 259.136 294.954C259.136 298.378 262.473 300.661 264.141 301.374C267.479 300.898 269.862 297.094 269.862 295.667Z" fill="#1B1E21"/>
<ellipse cx="260.566" cy="282.826" rx="1.43019" ry="2.14019" fill="#1B1E21"/>
<ellipse cx="270.578" cy="282.826" rx="1.43019" ry="2.14019" fill="#1B1E21"/>
<ellipse cx="264.857" cy="305.655" rx="1.43019" ry="1.42679" fill="#1B1E21"/>
<path d="M261.857 278.895C261.05 277.835 260.103 278 259.164 278.309" stroke="#D1D5DB" stroke-linecap="round"/>
<path d="M269.59 278.895C270.398 277.835 271.344 278 272.284 278.309" stroke="#D1D5DB" stroke-linecap="round"/>
<g opacity="0.3" filter="url(#filter0_f_4769_1363)">
<path d="M265.877 314.093C265.877 314.42 264.537 314.093 262.883 314.093C261.23 314.093 259.89 314.42 259.89 314.093C259.89 313.767 261.23 312.911 262.883 312.911C264.537 312.911 265.877 313.767 265.877 314.093Z" fill="white"/>
</g>
<g filter="url(#filter1_f_4769_1363)">
<rect width="1.33057" height="67.4835" rx="0.665285" transform="matrix(0.998108 -0.061482 0.061774 0.99809 279.183 150.383)" fill="white"/>
</g>
<g filter="url(#filter2_f_4769_1363)">
<rect width="1.33057" height="67.4835" rx="0.665285" transform="matrix(-0.998108 -0.061482 -0.061774 0.99809 242.099 123.148)" fill="white"/>
</g>
</g>
<path d="M262.217 100.591C338.754 100.591 396.938 87.9327 396.938 72.3177C396.938 60.9507 367.921 51.1505 320.507 46.6594L203.602 46.6902C156.363 51.1952 127.495 60.9766 127.495 72.3177C127.495 87.9327 185.679 100.591 262.217 100.591Z" fill="#0505B8"/>
<path d="M262.217 100.591C338.754 100.591 396.938 87.9327 396.938 72.3177C396.938 60.9507 367.921 51.1505 320.507 46.6594L203.602 46.6902C156.363 51.1952 127.495 60.9766 127.495 72.3177C127.495 87.9327 185.679 100.591 262.217 100.591Z" fill="#535EFC"/>
<path d="M392.087 71.6536C392.087 73.2123 391.274 74.7953 389.59 76.3894C387.906 77.9836 385.395 79.5451 382.115 81.0472C375.558 84.05 366.039 86.7668 354.236 89.053C330.639 93.6238 298.018 96.4543 261.972 96.4543C225.925 96.4543 193.305 93.6238 169.708 89.053C157.905 86.7668 148.386 84.05 141.829 81.0472C138.549 79.5451 136.038 77.9836 134.354 76.3894C132.67 74.7953 131.856 73.2123 131.856 71.6536C131.856 69.3858 133.587 67.0662 137.143 64.7761C140.673 62.5024 145.869 60.347 152.488 58.3723C165.716 54.4262 184.514 51.235 206.75 49.2207L316.889 49.1931C339.207 51.2012 358.081 54.3936 371.365 58.3452C378.012 60.3228 383.231 62.4821 386.777 64.7606C390.349 67.0555 392.087 69.3805 392.087 71.6536Z" fill="#0D0DE6" stroke="#0505B8"/>
<path d="M320.561 58.7746C320.561 68.4983 294.57 73.3602 262.509 73.3602C230.448 73.3602 204.458 68.4983 204.458 58.7746C204.458 26.5529 230.448 0.432129 262.509 0.432129C294.57 0.432129 320.561 26.5529 320.561 58.7746Z" fill="#535EFC"/>
<defs>
<filter id="filter0_f_4769_1363" x="257.667" y="310.688" width="10.4322" height="5.77226" filterUnits="userSpaceOnUse" color-interpolation-filters="sRGB">
<feFlood flood-opacity="0" result="BackgroundImageFix"/>
<feBlend mode="normal" in="SourceGraphic" in2="BackgroundImageFix" result="shape"/>
<feGaussianBlur stdDeviation="1.11122" result="effect1_foregroundBlur_4769_1363"/>
</filter>
<filter id="filter1_f_4769_1363" x="274.778" y="145.896" width="14.3067" height="76.2469" filterUnits="userSpaceOnUse" color-interpolation-filters="sRGB">
<feFlood flood-opacity="0" result="BackgroundImageFix"/>
<feBlend mode="normal" in="SourceGraphic" in2="BackgroundImageFix" result="shape"/>
<feGaussianBlur stdDeviation="2.22243" result="effect1_foregroundBlur_4769_1363"/>
</filter>
<filter id="filter2_f_4769_1363" x="232.197" y="118.661" width="14.3067" height="76.2469" filterUnits="userSpaceOnUse" color-interpolation-filters="sRGB">
<feFlood flood-opacity="0" result="BackgroundImageFix"/>
<feBlend mode="normal" in="SourceGraphic" in2="BackgroundImageFix" result="shape"/>
<feGaussianBlur stdDeviation="2.22243" result="effect1_foregroundBlur_4769_1363"/>
</filter>
<linearGradient id="paint0_linear_4769_1363" x1="263.319" y1="33.6423" x2="263.319" y2="404.043" gradientUnits="userSpaceOnUse">
<stop stop-color="#FEF9C3"/>
<stop offset="1" stop-color="#FEFCE8" stop-opacity="0"/>
</linearGradient>
<linearGradient id="paint1_linear_4769_1363" x1="253.027" y1="95.987" x2="243.515" y2="320.796" gradientUnits="userSpaceOnUse">
<stop stop-color="#FACC15" stop-opacity="0.1"/>
<stop offset="1" stop-color="#FFFDE9" stop-opacity="0"/>
</linearGradient>
<linearGradient id="paint2_linear_4769_1363" x1="273.244" y1="95.987" x2="282.757" y2="320.796" gradientUnits="userSpaceOnUse">
<stop stop-color="#FACC15" stop-opacity="0.1"/>
<stop offset="1" stop-color="#FFFDE9" stop-opacity="0"/>
</linearGradient>
<linearGradient id="paint3_linear_4769_1363" x1="263.966" y1="382.771" x2="236.926" y2="337.903" gradientUnits="userSpaceOnUse">
<stop stop-color="white"/>
<stop offset="1" stop-color="#E5E7EB"/>
</linearGradient>
<linearGradient id="paint4_linear_4769_1363" x1="302.468" y1="297.927" x2="274.523" y2="349.734" gradientUnits="userSpaceOnUse">
<stop stop-color="white"/>
<stop offset="1" stop-color="#E5E7EB"/>
</linearGradient>
<linearGradient id="paint5_linear_4769_1363" x1="224.026" y1="297.927" x2="251.971" y2="349.734" gradientUnits="userSpaceOnUse">
<stop stop-color="white"/>
<stop offset="1" stop-color="#E5E7EB"/>
</linearGradient>
<linearGradient id="paint6_linear_4769_1363" x1="262.506" y1="265.607" x2="262.506" y2="382.071" gradientUnits="userSpaceOnUse">
<stop stop-color="#F3F4F6"/>
<stop offset="1" stop-color="#E5E7EB"/>
</linearGradient>
<linearGradient id="paint7_linear_4769_1363" x1="265.295" y1="266.072" x2="265.295" y2="285.832" gradientUnits="userSpaceOnUse">
<stop stop-color="#E5E7EB"/>
<stop offset="1" stop-color="#9CA3AF"/>
</linearGradient>
<linearGradient id="paint8_linear_4769_1363" x1="265.295" y1="266.072" x2="265.295" y2="285.832" gradientUnits="userSpaceOnUse">
<stop stop-color="#E5E7EB"/>
<stop offset="1" stop-color="#9CA3AF"/>
</linearGradient>
<clipPath id="clip0_4769_1363">
<rect width="16.3847" height="16.3458" transform="matrix(-1 0 0 1 123.257 90.5676)" fill="white"/>
</clipPath>
</defs>
</svg>
