<svg width="412" height="421" viewBox="0 0 412 421" fill="none" xmlns="http://www.w3.org/2000/svg">
<mask id="mask0_4769_1719" style="mask-type:alpha" maskUnits="userSpaceOnUse" x="0" y="10" width="412" height="411">
<ellipse cx="206.001" cy="215.345" rx="205.575" ry="205.087" fill="white"/>
</mask>
<g mask="url(#mask0_4769_1719)">
<ellipse cx="206.001" cy="215.345" rx="205.575" ry="205.087" fill="#F3E8FF"/>
<ellipse cx="92.2349" cy="224.638" rx="1.33058" ry="1.32742" fill="#A241FF"/>
<ellipse cx="70.4204" cy="21.4373" rx="1.33058" ry="1.32742" fill="#A241FF"/>
<ellipse cx="37.2681" cy="304.393" rx="1.33058" ry="1.32742" fill="#A241FF"/>
<ellipse cx="137.474" cy="324.194" rx="0.665291" ry="0.663711" fill="#A241FF"/>
<ellipse cx="348.524" cy="25.1121" rx="1.33058" ry="1.32742" fill="#A241FF"/>
<ellipse cx="258.791" cy="67.8813" rx="1.84175" ry="1.83738" fill="#A241FF"/>
<ellipse cx="97.5571" cy="358.043" rx="1.33058" ry="1.32742" fill="#A241FF"/>
<ellipse cx="397.587" cy="90.5936" rx="0.665291" ry="0.663711" fill="#A241FF"/>
<ellipse cx="377.331" cy="275.327" rx="1.33058" ry="1.32742" fill="#A241FF"/>
<ellipse cx="237.353" cy="239.421" rx="0.665291" ry="0.663711" fill="#A241FF"/>
<ellipse cx="313.53" cy="183.126" rx="1.33058" ry="1.32742" fill="#A241FF"/>
<ellipse cx="382.186" cy="405.959" rx="1.84175" ry="1.83738" fill="#A241FF"/>
<ellipse cx="315.885" cy="402.284" rx="1.84175" ry="1.83738" fill="#A241FF"/>
<ellipse cx="255.107" cy="361.862" rx="1.84175" ry="1.83738" fill="#A241FF"/>
<ellipse cx="161.841" cy="197.162" rx="0.665291" ry="0.663711" fill="#A241FF"/>
<ellipse cx="181.436" cy="354.512" rx="1.84175" ry="1.83738" fill="#A241FF"/>
<ellipse cx="83.3111" cy="276.833" rx="1.33058" ry="1.32742" fill="#A241FF"/>
<ellipse cx="142.249" cy="139.029" rx="1.33058" ry="1.32742" fill="#A241FF"/>
<ellipse cx="201.695" cy="389.423" rx="1.84175" ry="1.83738" fill="#A241FF"/>
<ellipse cx="78.2642" cy="87.9134" rx="1.33058" ry="1.32742" fill="#A241FF"/>
<ellipse cx="28.3691" cy="53.3999" rx="2.4394" ry="2.43361" fill="#A241FF"/>
<ellipse cx="63.9599" cy="156.608" rx="1.2197" ry="1.2168" fill="#A241FF"/>
<ellipse cx="145.792" cy="282.048" rx="1.2197" ry="1.2168" fill="#A241FF"/>
<ellipse cx="329.411" cy="296.651" rx="1.2197" ry="1.2168" fill="#A241FF"/>
<ellipse cx="380.971" cy="181.496" rx="2.4394" ry="2.43361" fill="#A241FF"/>
<ellipse cx="340.493" cy="345.989" rx="0.665291" ry="0.663711" fill="#A241FF"/>
<ellipse cx="409.303" cy="102.282" rx="1.33058" ry="1.32742" fill="#A241FF"/>
<ellipse cx="228.811" cy="148.216" rx="1.33058" ry="1.32742" fill="#A241FF"/>
<g clip-path="url(#clip0_4769_1719)">
<path opacity="0.4" d="M109.718 96.5241L108.923 94.622L107.016 93.829C106.974 93.8078 106.938 93.7752 106.913 93.7348C106.888 93.6944 106.875 93.6479 106.875 93.6004C106.875 93.5529 106.888 93.5063 106.913 93.466C106.938 93.4256 106.974 93.393 107.016 93.3718L108.923 92.5788L109.718 90.6766C109.739 90.6341 109.772 90.5984 109.812 90.5734C109.853 90.5484 109.899 90.5352 109.947 90.5352C109.995 90.5352 110.041 90.5484 110.082 90.5734C110.122 90.5984 110.155 90.6341 110.176 90.6766L110.971 92.5788L112.878 93.3718C112.92 93.393 112.956 93.4256 112.981 93.466C113.006 93.5063 113.02 93.5529 113.02 93.6004C113.02 93.6479 113.006 93.6944 112.981 93.7348C112.956 93.7752 112.92 93.8078 112.878 93.829L110.971 94.622L110.176 96.5241C110.155 96.5666 110.122 96.6024 110.082 96.6273C110.041 96.6523 109.995 96.6656 109.947 96.6656C109.899 96.6656 109.853 96.6523 109.812 96.6273C109.772 96.6024 109.739 96.5666 109.718 96.5241ZM110.176 100.893L110.971 102.795L112.878 103.588C112.92 103.609 112.956 103.642 112.981 103.682C113.006 103.722 113.02 103.769 113.02 103.817C113.02 103.864 113.006 103.911 112.981 103.951C112.956 103.991 112.92 104.024 112.878 104.045L110.971 104.838L110.176 106.74C110.155 106.783 110.122 106.818 110.082 106.843C110.041 106.868 109.995 106.882 109.947 106.882C109.899 106.882 109.853 106.868 109.812 106.843C109.772 106.818 109.739 106.783 109.718 106.74L108.923 104.838L107.016 104.045C106.974 104.024 106.938 103.991 106.913 103.951C106.888 103.911 106.875 103.864 106.875 103.817C106.875 103.769 106.888 103.722 106.913 103.682C106.938 103.642 106.974 103.609 107.016 103.588L108.923 102.795L109.718 100.893C109.739 100.85 109.772 100.815 109.812 100.79C109.853 100.765 109.899 100.751 109.947 100.751C109.995 100.751 110.041 100.765 110.082 100.79C110.122 100.815 110.155 100.85 110.176 100.893Z" fill="#FF4331"/>
<mask id="path-32-inside-1_4769_1719" fill="white">
<path d="M110.97 98.6971C110.97 98.6022 110.996 98.5092 111.046 98.4284C111.096 98.3477 111.167 98.2823 111.252 98.2396L114.855 96.4394L116.656 92.8391C116.83 92.4921 117.398 92.4921 117.572 92.8391L119.373 96.4394L122.975 98.2396C123.061 98.2819 123.133 98.3471 123.183 98.428C123.233 98.5089 123.26 98.6021 123.26 98.6973C123.26 98.7924 123.233 98.8857 123.183 98.9666C123.133 99.0474 123.061 99.1127 122.975 99.1549L119.373 100.955L117.572 104.555C117.529 104.64 117.464 104.712 117.383 104.761C117.302 104.811 117.209 104.838 117.114 104.838C117.019 104.838 116.926 104.811 116.845 104.761C116.764 104.712 116.698 104.64 116.656 104.555L114.855 100.955L111.252 99.1556C111.167 99.1128 111.096 99.0473 111.046 98.9663C110.996 98.8854 110.969 98.7922 110.97 98.6971Z"/>
</mask>
<path d="M110.97 98.6971C110.97 98.6022 110.996 98.5092 111.046 98.4284C111.096 98.3477 111.167 98.2823 111.252 98.2396L114.855 96.4394L116.656 92.8391C116.83 92.4921 117.398 92.4921 117.572 92.8391L119.373 96.4394L122.975 98.2396C123.061 98.2819 123.133 98.3471 123.183 98.428C123.233 98.5089 123.26 98.6021 123.26 98.6973C123.26 98.7924 123.233 98.8857 123.183 98.9666C123.133 99.0474 123.061 99.1127 122.975 99.1549L119.373 100.955L117.572 104.555C117.529 104.64 117.464 104.712 117.383 104.761C117.302 104.811 117.209 104.838 117.114 104.838C117.019 104.838 116.926 104.811 116.845 104.761C116.764 104.712 116.698 104.64 116.656 104.555L114.855 100.955L111.252 99.1556C111.167 99.1128 111.096 99.0473 111.046 98.9663C110.996 98.8854 110.969 98.7922 110.97 98.6971Z" fill="#FF4331"/>
<path d="M110.97 98.6971L109.449 98.6963L109.449 98.6956L110.97 98.6971ZM111.252 98.2396L110.57 96.8809L110.573 96.8796L111.252 98.2396ZM114.855 96.4394L116.215 97.1196L115.988 97.5728L115.534 97.7994L114.855 96.4394ZM116.656 92.8391L115.296 92.1589L115.297 92.1574L116.656 92.8391ZM117.572 92.8391L118.931 92.1584L118.931 92.1589L117.572 92.8391ZM119.373 96.4394L118.693 97.7994L118.24 97.5728L118.013 97.1196L119.373 96.4394ZM122.975 98.2396L122.301 99.6025L122.296 99.5996L122.975 98.2396ZM123.26 98.6973H124.78H123.26ZM122.975 99.1549L122.296 97.7949L122.301 97.7921L122.975 99.1549ZM119.373 100.955L118.013 100.275L118.24 99.8218L118.693 99.5952L119.373 100.955ZM117.572 104.555L118.931 105.236L118.931 105.237L117.572 104.555ZM116.656 104.555L115.297 105.237L115.296 105.236L116.656 104.555ZM114.855 100.955L115.534 99.5951L115.988 99.8216L116.215 100.275L114.855 100.955ZM111.252 99.1556L110.573 100.516L110.57 100.514L111.252 99.1556ZM109.449 98.6956C109.449 98.3186 109.555 97.9492 109.753 97.6288L112.339 99.228C112.437 99.0692 112.49 98.8859 112.49 98.6986L109.449 98.6956ZM109.753 97.6288C109.951 97.3084 110.234 97.0497 110.57 96.8809L111.935 99.5984C112.101 99.515 112.241 99.3869 112.339 99.228L109.753 97.6288ZM110.573 96.8796L114.175 95.0793L115.534 97.7994L111.932 99.5996L110.573 96.8796ZM113.495 95.7591L115.296 92.1589L118.016 93.5193L116.215 97.1196L113.495 95.7591ZM115.297 92.1574C115.701 91.3514 116.499 91.0585 117.114 91.0585C117.729 91.0585 118.527 91.3515 118.931 92.1584L116.212 93.5199C116.443 93.9798 116.87 94.0992 117.114 94.0992C117.358 94.0992 117.785 93.9798 118.015 93.5209L115.297 92.1574ZM118.931 92.1589L120.733 95.7591L118.013 97.1196L116.212 93.5193L118.931 92.1589ZM120.052 95.0793L123.655 96.8796L122.296 99.5996L118.693 97.7994L120.052 95.0793ZM123.649 96.8768C123.988 97.0445 124.274 97.3035 124.474 97.6251L121.892 99.2309C121.991 99.3908 122.133 99.5193 122.301 99.6024L123.649 96.8768ZM124.474 97.6251C124.674 97.9468 124.78 98.3182 124.78 98.6973H121.739C121.739 98.8861 121.792 99.0709 121.892 99.2309L124.474 97.6251ZM124.78 98.6973C124.78 99.0764 124.674 99.4478 124.474 99.7695L121.892 98.1637C121.792 98.3236 121.739 98.5085 121.739 98.6973H124.78ZM124.474 99.7695C124.274 100.091 123.988 100.35 123.649 100.518L122.301 97.7921C122.133 97.8752 121.991 98.0038 121.892 98.1637L124.474 99.7695ZM123.655 100.515L120.052 102.315L118.693 99.5952L122.296 97.7949L123.655 100.515ZM120.733 101.635L118.931 105.236L116.212 103.875L118.013 100.275L120.733 101.635ZM118.931 105.237C118.762 105.574 118.502 105.858 118.181 106.056L116.585 103.467C116.426 103.565 116.297 103.706 116.213 103.874L118.931 105.237ZM118.181 106.056C117.86 106.254 117.49 106.358 117.114 106.358V103.317C116.927 103.317 116.744 103.369 116.585 103.467L118.181 106.056ZM117.114 106.358C116.737 106.358 116.368 106.254 116.047 106.056L117.642 103.467C117.483 103.369 117.3 103.317 117.114 103.317V106.358ZM116.047 106.056C115.726 105.858 115.466 105.574 115.297 105.237L118.015 103.874C117.931 103.706 117.802 103.565 117.642 103.467L116.047 106.056ZM115.296 105.236L113.495 101.635L116.215 100.275L118.016 103.875L115.296 105.236ZM114.175 102.315L110.573 100.516L111.932 97.7955L115.534 99.5951L114.175 102.315ZM110.57 100.514C110.233 100.345 109.95 100.086 109.752 99.7647L112.34 98.1679C112.242 98.0089 112.101 97.8806 111.935 97.7971L110.57 100.514ZM109.752 99.7647C109.554 99.4438 109.449 99.0739 109.449 98.6963L112.49 98.6979C112.49 98.5105 112.438 98.327 112.34 98.1679L109.752 99.7647Z" fill="#FF4331" mask="url(#path-32-inside-1_4769_1719)"/>
</g>
<path d="M580.06 659.368C580.06 836.505 436.121 980.104 258.56 980.104C80.9983 980.104 -62.9414 836.505 -62.9414 659.368C-62.9414 482.232 80.9983 338.632 258.56 338.632C436.121 338.632 580.06 482.232 580.06 659.368Z" fill="#FAF5FF" stroke="#A241FF"/>
<path d="M314.084 378.743C314.084 382.952 310.664 386.365 306.442 386.365C302.221 386.365 298.801 382.952 298.801 378.743C298.801 374.535 302.221 371.121 306.442 371.121C310.664 371.121 314.084 374.535 314.084 378.743Z" fill="#F3E8FF" stroke="#A241FF"/>
<path d="M256.837 422.603C256.837 439.821 242.846 453.78 225.584 453.78C208.323 453.78 194.332 439.821 194.332 422.603C194.332 405.386 208.323 391.427 225.584 391.427C242.846 391.427 256.837 405.386 256.837 422.603Z" fill="#F3E8FF" stroke="#A241FF"/>
<path d="M141.926 398.747C141.926 406.096 135.954 412.055 128.585 412.055C121.216 412.055 115.244 406.096 115.244 398.747C115.244 391.398 121.216 385.439 128.585 385.439C135.954 385.439 141.926 391.398 141.926 398.747Z" fill="#F3E8FF" stroke="#A241FF"/>
<path d="M74.0833 204.063C74.0833 208.153 70.7589 211.472 66.6554 211.472C62.5518 211.472 59.2275 208.153 59.2275 204.063C59.2275 199.972 62.5518 196.654 66.6554 196.654C70.7589 196.654 74.0833 199.972 74.0833 204.063Z" fill="#8521E0" stroke="#F3E8FF" stroke-width="1.11122"/>
<path d="M59.0047 204.862C53.1451 206.647 49.1666 208.186 49.3047 208.701C49.4949 209.409 57.4173 207.906 66.9999 205.345C76.5825 202.783 84.1965 200.133 84.0063 199.425C83.8678 198.909 79.632 199.565 73.6411 200.948" stroke="#C58CFE"/>
<path d="M52.9849 210.036C57.9746 209.372 61.6337 208.483 67.4222 206.936C73.9416 205.193 76.9354 204.394 81.2598 202.735" stroke="#A241FF" stroke-linecap="round"/>
<path d="M52.4238 205.298C53.3184 204.954 54.156 204.648 54.9797 204.362C55.5362 204.169 56.0862 203.986 56.6432 203.807" stroke="#A241FF" stroke-linecap="round"/>
<path d="M74.3125 199.054C74.6694 198.981 75.0172 198.912 75.3586 198.846M80.0797 198.088C79.4619 198.168 78.8622 198.253 78.265 198.344C77.9324 198.395 77.6007 198.448 77.267 198.504" stroke="#A241FF" stroke-linecap="round"/>
<path d="M227.842 67.0149H298.798L325.078 409.543H201.562L227.842 67.0149Z" fill="url(#paint0_linear_4769_1719)"/>
<path d="M227.843 67.0151H255.969L242 310.525H209.283L227.843 67.0151Z" fill="url(#paint1_linear_4769_1719)"/>
<path d="M298.43 67.0151H270.304L284.273 310.525H316.99L298.43 67.0151Z" fill="url(#paint2_linear_4769_1719)"/>
<ellipse cx="259.67" cy="355.934" rx="75.0177" ry="7.99812" fill="#F3E8FF"/>
<ellipse cx="255.83" cy="357.077" rx="28.8011" ry="2.39439" fill="#C58CFE"/>
<path d="M252.667 345.928L252.317 345.556L251.952 345.914C251.929 345.936 251.863 345.983 251.715 346.032C251.572 346.08 251.38 346.12 251.138 346.147C250.653 346.202 250.017 346.202 249.268 346.148C247.771 346.04 245.885 345.723 243.979 345.263C242.073 344.802 240.167 344.203 238.629 343.537C237.859 343.204 237.192 342.858 236.666 342.512C236.133 342.16 235.781 341.83 235.6 341.54C234.877 340.386 234.099 339.863 233.211 339.975C232.806 340.026 232.44 340.206 232.118 340.412C231.797 340.617 231.483 340.874 231.193 341.112L231.19 341.115C230.568 341.624 230.059 342.028 229.539 342.137C229.304 342.186 229.064 342.172 228.8 342.057C228.526 341.938 228.201 341.698 227.827 341.255L227.132 340.432L226.951 341.492L227.444 341.576C226.951 341.492 226.951 341.492 226.951 341.493L226.951 341.493L226.95 341.495L226.949 341.5L226.946 341.521C226.943 341.538 226.939 341.563 226.934 341.596C226.925 341.661 226.911 341.755 226.896 341.873C226.865 342.109 226.827 342.444 226.797 342.84C226.739 343.629 226.712 344.681 226.851 345.699C226.988 346.7 227.295 347.754 227.974 348.462C228.698 349.216 229.752 349.489 231.141 349.09C232.377 348.735 233.179 348.618 233.679 348.638C234.17 348.658 234.229 348.797 234.238 348.818C234.238 348.818 234.238 348.818 234.239 348.819C234.278 348.909 234.281 349.116 234.151 349.505C234.051 349.804 233.907 350.119 233.756 350.447C233.722 350.522 233.687 350.597 233.653 350.673C233.54 350.922 233.559 351.189 233.7 351.415C233.819 351.608 234.005 351.738 234.171 351.829C234.508 352.013 234.99 352.154 235.514 352.275C236.286 352.451 237.269 352.607 238.264 352.764C238.635 352.823 239.009 352.882 239.373 352.942C240.751 353.171 241.988 353.419 242.715 353.743C243.095 353.912 243.194 354.042 243.209 354.076C243.208 354.08 243.206 354.087 243.202 354.098C243.184 354.142 243.133 354.228 242.998 354.355C242.656 354.677 242.381 355.022 242.322 355.39C242.289 355.599 242.328 355.809 242.449 355.991C242.562 356.161 242.722 356.27 242.87 356.341C243.158 356.478 243.531 356.533 243.897 356.554C244.277 356.576 244.708 356.563 245.148 356.532C246.03 356.469 246.988 356.327 247.721 356.201C248.089 356.139 248.402 356.08 248.624 356.037C248.735 356.015 248.823 355.997 248.883 355.985L248.953 355.97L248.972 355.967L248.977 355.966L248.978 355.965L248.978 355.965C248.978 355.965 248.978 355.965 248.874 355.477L248.978 355.965L249.078 355.944L249.161 355.886L253.709 352.717L257.392 352.056L258.3 351.893L257.667 351.222L252.667 345.928Z" fill="url(#paint3_linear_4769_1719)" stroke="#D1D5DB"/>
<path d="M276.639 331.068L276.499 331.558L276.993 331.687C277.024 331.696 277.099 331.728 277.216 331.83C277.331 331.928 277.463 332.072 277.611 332.265C277.906 332.653 278.232 333.198 278.569 333.868C279.243 335.205 279.936 336.984 280.516 338.853C281.095 340.722 281.555 342.663 281.77 344.322C281.877 345.153 281.922 345.901 281.893 346.529C281.863 347.166 281.759 347.637 281.603 347.941C280.427 350.223 280.302 350.821 280.339 351.483C280.342 351.525 280.345 351.566 280.347 351.607C280.362 351.824 280.376 352.029 280.324 352.397C280.26 352.847 280.094 353.542 279.686 354.72L279.617 354.919L279.711 355.107L280.159 354.883C279.711 355.107 279.712 355.108 279.712 355.108L279.712 355.109L279.713 355.111L279.716 355.116L279.722 355.127C279.726 355.135 279.732 355.144 279.738 355.155C279.751 355.176 279.768 355.203 279.789 355.233C279.832 355.292 279.895 355.367 279.98 355.444C280.155 355.601 280.419 355.76 280.791 355.822C281.527 355.944 282.562 355.671 284.034 354.569C284.463 354.248 284.848 353.766 285.198 353.204C285.551 352.638 285.887 351.961 286.205 351.224C286.842 349.749 287.429 347.99 287.966 346.294C288.127 345.785 288.283 345.284 288.435 344.796C288.792 343.648 289.124 342.58 289.436 341.694C289.657 341.064 289.861 340.547 290.048 340.171C290.142 339.983 290.225 339.843 290.296 339.747C290.362 339.658 290.397 339.634 290.397 339.634C290.397 339.634 290.396 339.634 290.393 339.635C290.67 339.498 290.88 339.283 290.97 338.99C291.054 338.715 291.009 338.444 290.935 338.225C290.792 337.799 290.47 337.364 290.205 337.031C290.129 336.936 290.048 336.837 289.974 336.746C290.113 336.666 290.214 336.553 290.286 336.439C290.449 336.181 290.511 335.84 290.535 335.517C290.585 334.846 290.486 333.936 290.304 333.003C290.12 332.061 289.845 331.06 289.522 330.197C289.206 329.356 288.818 328.572 288.379 328.134C287.871 327.628 287.199 327.535 286.578 327.613C285.96 327.69 285.321 327.941 284.763 328.219C284.199 328.5 283.686 328.826 283.317 329.079C283.254 329.123 283.194 329.164 283.139 329.203L279.53 323.925L278.928 323.045L278.636 324.071L276.639 331.068Z" fill="url(#paint4_linear_4769_1719)" stroke="#D1D5DB"/>
<path d="M249.857 331.068L249.997 331.558L249.503 331.687C249.472 331.696 249.398 331.728 249.28 331.83C249.165 331.928 249.033 332.072 248.885 332.265C248.59 332.653 248.264 333.198 247.927 333.868C247.253 335.205 246.56 336.984 245.98 338.853C245.401 340.722 244.941 342.663 244.726 344.322C244.619 345.153 244.574 345.901 244.603 346.529C244.633 347.166 244.737 347.637 244.893 347.941C246.069 350.223 246.194 350.821 246.157 351.483C246.154 351.525 246.151 351.566 246.149 351.607C246.134 351.824 246.12 352.029 246.172 352.397C246.236 352.847 246.402 353.542 246.81 354.72L246.879 354.919L246.785 355.107L246.337 354.883C246.785 355.107 246.784 355.108 246.784 355.108L246.784 355.109L246.783 355.111L246.78 355.116L246.774 355.127C246.77 355.135 246.765 355.144 246.758 355.155C246.745 355.176 246.729 355.203 246.707 355.233C246.664 355.292 246.601 355.367 246.516 355.444C246.341 355.601 246.077 355.76 245.705 355.822C244.969 355.944 243.934 355.671 242.462 354.569C242.033 354.248 241.648 353.766 241.298 353.204C240.945 352.638 240.609 351.961 240.291 351.224C239.654 349.749 239.067 347.99 238.53 346.294C238.369 345.785 238.213 345.284 238.062 344.796C237.704 343.648 237.372 342.58 237.06 341.694C236.839 341.064 236.635 340.547 236.448 340.171C236.354 339.983 236.271 339.843 236.2 339.747C236.134 339.658 236.099 339.634 236.099 339.634C236.099 339.634 236.1 339.634 236.103 339.635C235.826 339.498 235.616 339.283 235.526 338.99C235.442 338.715 235.487 338.444 235.561 338.225C235.704 337.799 236.026 337.364 236.291 337.031C236.367 336.936 236.448 336.837 236.523 336.746C236.383 336.666 236.282 336.553 236.21 336.439C236.047 336.181 235.985 335.84 235.961 335.517C235.911 334.846 236.01 333.936 236.192 333.003C236.376 332.061 236.651 331.06 236.975 330.197C237.29 329.356 237.678 328.572 238.117 328.134C238.625 327.628 239.297 327.535 239.918 327.613C240.536 327.69 241.175 327.941 241.734 328.219C242.297 328.5 242.81 328.826 243.179 329.079C243.242 329.123 243.302 329.164 243.357 329.203L246.966 323.925L247.568 323.045L247.86 324.071L249.857 331.068Z" fill="url(#paint5_linear_4769_1719)" stroke="#D1D5DB"/>
<path d="M251.646 358.236L251.73 358.204L251.73 358.204L251.731 358.204L251.733 358.203L251.744 358.199L251.79 358.183C251.832 358.168 251.894 358.146 251.977 358.117C252.143 358.06 252.39 357.978 252.709 357.879C253.346 357.682 254.273 357.418 255.421 357.153C257.72 356.624 260.899 356.096 264.427 356.096C267.952 356.096 270.585 356.623 272.328 357.145C273.2 357.406 273.85 357.666 274.278 357.858C274.492 357.954 274.65 358.033 274.754 358.087C274.805 358.114 274.843 358.135 274.867 358.148L274.892 358.162L274.896 358.165L274.897 358.165L274.897 358.165L274.897 358.166L275.015 358.236H275.153H281.758C283.978 358.236 285.368 355.837 284.265 353.911L283.769 353.045C283.597 352.745 283.532 352.46 283.584 352.216C283.703 351.654 283.966 351.166 284.511 351.098C284.664 351.079 284.824 351.029 284.963 350.923C285.107 350.814 285.198 350.669 285.246 350.517C285.333 350.239 285.276 349.943 285.208 349.714C285.064 349.237 284.742 348.658 284.432 348.139C284.304 347.924 284.178 347.72 284.06 347.528C283.934 347.324 283.817 347.134 283.715 346.961C283.831 346.983 283.96 347 284.092 347C284.365 347 284.652 346.928 284.928 346.722C285.191 346.525 285.413 346.229 285.611 345.832C285.768 345.521 285.775 345.096 285.747 344.703C285.717 344.281 285.633 343.776 285.52 343.232C285.292 342.142 284.93 340.833 284.572 339.585C284.49 339.299 284.409 339.016 284.329 338.739C284.058 337.802 283.809 336.938 283.638 336.257C283.55 335.904 283.487 335.617 283.453 335.404C283.763 335.396 284.128 335.374 284.458 335.309C284.708 335.259 284.986 335.175 285.214 335.018C285.46 334.848 285.664 334.574 285.664 334.194C285.664 334.087 285.641 333.971 285.619 333.881C285.596 333.78 285.563 333.663 285.524 333.537C285.455 333.307 285.361 333.021 285.257 332.705L285.226 332.611C284.991 331.897 284.706 331.021 284.487 330.149C284.267 329.268 284.126 328.435 284.156 327.797C284.187 327.136 284.381 326.896 284.607 326.821C285.376 326.566 285.772 325.891 285.946 325.14C286.119 324.391 286.098 323.472 285.967 322.522C285.704 320.616 284.97 318.423 284.181 316.849C283.123 314.737 281.538 313.228 280.314 312.132C280.444 312.155 280.575 312.178 280.707 312.198C281.263 312.285 281.872 312.352 282.357 312.312C282.594 312.292 282.858 312.243 283.077 312.115C283.326 311.97 283.519 311.716 283.519 311.365C283.519 311.11 283.401 310.879 283.287 310.706C283.165 310.521 282.999 310.329 282.812 310.139C282.436 309.758 281.923 309.332 281.357 308.898C280.278 308.071 278.953 307.176 277.893 306.461C277.839 306.424 277.786 306.388 277.733 306.353C277.015 305.867 276.785 304.946 277.182 304.152L278.138 302.246C278.223 302.386 278.319 302.527 278.427 302.657C278.618 302.888 278.869 303.118 279.193 303.252C279.529 303.392 279.91 303.414 280.317 303.279C280.758 303.132 281.063 302.77 281.276 302.377C281.493 301.977 281.653 301.475 281.775 300.93C282.02 299.836 282.133 298.462 282.178 297.114C282.238 295.317 282.177 293.471 282.13 292.371C282.141 292.381 282.152 292.39 282.163 292.399C282.453 292.64 282.85 292.909 283.317 292.987C283.825 293.071 284.341 292.918 284.803 292.458C285.105 292.156 285.233 291.688 285.292 291.233C285.354 290.753 285.351 290.172 285.306 289.537C285.214 288.264 284.94 286.699 284.579 285.126C284.218 283.55 283.767 281.951 283.314 280.608C282.868 279.282 282.403 278.154 282.005 277.558C281.896 277.395 281.805 277.105 281.767 276.655C281.73 276.217 281.747 275.679 281.807 275.064C281.927 273.835 282.212 272.366 282.525 270.895C282.619 270.454 282.715 270.012 282.81 269.577C283.029 268.575 283.239 267.612 283.388 266.789C283.495 266.198 283.575 265.66 283.603 265.218C283.618 264.996 283.62 264.787 283.603 264.601C283.587 264.421 283.551 264.227 283.466 264.057C283.245 263.615 282.778 263.588 282.486 263.627C282.173 263.668 281.809 263.805 281.435 263.984C280.673 264.346 279.703 264.958 278.676 265.672C276.685 267.056 274.405 268.875 272.85 270.181C272.845 270.174 272.84 270.166 272.835 270.158C272.635 269.856 272.351 269.164 272.068 267.75C271.916 266.993 272.114 266.65 272.327 266.457C272.587 266.222 272.977 266.108 273.384 266.018C273.414 266.011 273.445 266.005 273.477 265.998C273.631 265.965 273.809 265.926 273.937 265.879C274.007 265.853 274.159 265.793 274.271 265.655C274.337 265.574 274.392 265.465 274.402 265.332C274.411 265.203 274.377 265.094 274.338 265.016C274.267 264.876 274.153 264.774 274.07 264.708C273.976 264.633 273.858 264.556 273.722 264.474C273.448 264.31 273.054 264.102 272.516 263.834C271.262 263.208 270.134 263.424 269.204 264.03C268.307 264.614 267.59 265.559 267.043 266.422C266.767 266.859 266.526 267.287 266.324 267.657C266.297 267.705 266.272 267.751 266.247 267.796C266.009 266.951 265.41 266.155 264.729 265.47C263.827 264.562 262.681 263.749 261.682 263.142C260.741 262.57 259.636 263.296 259.636 264.327C259.636 264.625 259.348 264.793 259.105 264.674C259.025 264.635 258.945 264.596 258.864 264.557C258.128 264.197 257.338 263.811 256.758 263.6C256.594 263.54 256.434 263.49 256.289 263.458C256.156 263.428 255.982 263.402 255.813 263.433C255.723 263.449 255.606 263.487 255.499 263.576C255.385 263.672 255.316 263.8 255.29 263.934C255.246 264.164 255.333 264.375 255.399 264.505C255.663 265.032 255.825 265.69 255.869 266.438C255.906 267.047 255.581 267.429 255.101 267.59C254.595 267.761 253.915 267.676 253.364 267.247C250.862 265.306 249.319 264.613 248.368 264.422C247.852 264.318 247.415 264.508 247.137 264.867C246.882 265.198 246.786 265.635 246.801 266.046C246.874 267.998 247.056 272.348 247.349 275.762C247.407 276.444 247.091 277.13 246.54 277.636C243.558 280.375 242.936 284.076 243.125 287.035C243.219 288.518 243.518 289.836 243.84 290.791C244 291.267 244.171 291.666 244.332 291.955C244.412 292.097 244.499 292.231 244.592 292.335C244.639 292.388 244.699 292.446 244.773 292.495C244.843 292.541 244.963 292.604 245.119 292.604C245.304 292.604 245.452 292.526 245.544 292.466C245.642 292.401 245.732 292.319 245.809 292.238C245.965 292.076 246.128 291.861 246.288 291.633C246.476 291.365 246.689 291.036 246.902 290.706C247.044 290.486 247.187 290.266 247.323 290.063C247.685 289.52 248.007 289.088 248.26 288.872C248.261 288.871 248.262 288.871 248.263 288.87C248.264 288.886 248.264 288.905 248.265 288.925C248.267 289.05 248.254 289.217 248.224 289.427C248.162 289.848 248.037 290.391 247.866 291.026C247.583 292.073 247.187 293.323 246.779 294.609C246.693 294.882 246.606 295.157 246.519 295.431C246.029 296.988 245.552 298.549 245.29 299.768C245.159 300.374 245.074 300.926 245.076 301.364C245.077 301.582 245.099 301.803 245.165 301.999C245.233 302.197 245.365 302.416 245.611 302.539C246.045 302.755 246.537 302.713 246.979 302.585C247.848 302.332 248.816 302.354 249.571 302.647C250.312 302.934 250.807 303.458 250.892 304.224L250.931 304.57C250.994 305.14 250.794 305.712 250.39 306.135C249.313 307.262 247.892 308.834 246.737 310.319C246.161 311.061 245.642 311.791 245.266 312.44C245.077 312.764 244.919 313.077 244.807 313.366C244.697 313.651 244.619 313.943 244.619 314.219C244.619 314.811 244.766 315.31 245.194 315.571C245.573 315.802 246.021 315.735 246.274 315.693C246.348 315.681 246.407 315.67 246.46 315.66C246.528 315.648 246.586 315.637 246.657 315.627C246.701 315.62 246.736 315.616 246.764 315.615C246.764 315.624 246.764 315.634 246.764 315.646C246.764 315.834 246.704 316.086 246.561 316.408C246.421 316.726 246.215 317.082 245.956 317.467C245.437 318.239 244.739 319.084 244.024 319.923C243.86 320.114 243.695 320.306 243.532 320.497C242.989 321.127 242.462 321.741 242.043 322.281C241.769 322.634 241.529 322.971 241.355 323.275C241.192 323.56 241.044 323.889 241.044 324.207C241.044 324.653 241.159 325.001 241.388 325.268C241.589 325.502 241.847 325.63 242.013 325.713L242.036 325.724C242.229 325.821 242.313 325.87 242.371 325.937C242.41 325.982 242.474 326.08 242.474 326.347C242.474 327.007 242.304 328.213 242.037 329.548C241.771 330.873 241.418 332.278 241.069 333.322C240.989 333.563 240.995 333.818 241.03 334.051C241.066 334.288 241.139 334.543 241.228 334.805C241.36 335.194 241.548 335.646 241.748 336.129C241.815 336.288 241.882 336.451 241.95 336.616C242.506 337.977 243.103 339.601 243.19 341.353C243.273 343.025 242.526 344.885 241.744 346.483C241.551 346.877 241.36 347.249 241.181 347.596L241.167 347.623C240.995 347.957 240.833 348.269 240.701 348.546C240.566 348.826 240.449 349.091 240.379 349.319C240.344 349.434 240.315 349.556 240.306 349.678C240.297 349.795 240.303 349.956 240.382 350.113C240.506 350.361 240.675 350.557 240.889 350.692C241.1 350.827 241.327 350.884 241.54 350.9C241.945 350.93 242.365 350.812 242.664 350.726C242.686 350.72 242.708 350.714 242.729 350.708C242.864 350.669 242.977 350.637 243.081 350.614C243.124 350.604 243.16 350.598 243.189 350.593C243.189 350.596 243.189 350.599 243.189 350.602C243.189 350.661 243.167 350.787 243.093 350.993C243.023 351.191 242.917 351.429 242.78 351.7C242.506 352.241 242.126 352.881 241.707 353.54C240.457 355.504 241.783 358.236 244.183 358.236H251.555H251.646ZM283.42 346.378C283.42 346.379 283.421 346.382 283.421 346.386C283.421 346.385 283.421 346.385 283.421 346.384C283.42 346.381 283.42 346.379 283.419 346.378C283.42 346.378 283.42 346.378 283.42 346.378ZM273.48 265.519C273.479 265.519 273.479 265.518 273.478 265.517L273.48 265.519ZM273.604 264.935C273.604 264.935 273.601 264.937 273.595 264.939C273.6 264.936 273.603 264.935 273.604 264.935Z" fill="url(#paint6_linear_4769_1719)" stroke="#D1D5DB" stroke-linecap="round"/>
<path d="M250.555 274.264C249.746 274.264 249.125 268.557 249.125 267.13L251.985 268.557C253.416 269.271 254.846 270.697 254.846 270.697C252.7 271.411 250.555 274.264 250.555 274.264Z" fill="url(#paint7_linear_4769_1719)"/>
<path d="M275.584 271.411C275.584 270.269 279.397 267.844 281.304 267.13V267.131C281.304 267.702 281.304 270.698 279.874 274.264C278.444 272.838 275.583 272.124 275.584 271.411Z" fill="url(#paint8_linear_4769_1719)"/>
<path d="M269.863 295.667C269.863 293.527 261.282 292.1 259.137 294.954C259.137 298.378 262.474 300.661 264.142 301.374C267.479 300.898 269.863 297.094 269.863 295.667Z" fill="#1B1E21"/>
<ellipse cx="260.567" cy="282.826" rx="1.43019" ry="2.14019" fill="#1B1E21"/>
<ellipse cx="270.579" cy="282.826" rx="1.43019" ry="2.14019" fill="#1B1E21"/>
<ellipse cx="264.858" cy="305.655" rx="1.43019" ry="1.42679" fill="#1B1E21"/>
<path d="M261.858 278.895C261.051 277.835 260.104 278 259.165 278.309" stroke="#D1D5DB" stroke-linecap="round"/>
<path d="M269.591 278.895C270.399 277.835 271.345 278 272.285 278.309" stroke="#D1D5DB" stroke-linecap="round"/>
<g opacity="0.3" filter="url(#filter0_f_4769_1719)">
<path d="M265.878 314.093C265.878 314.42 264.538 314.093 262.884 314.093C261.231 314.093 259.891 314.42 259.891 314.093C259.891 313.767 261.231 312.911 262.884 312.911C264.538 312.911 265.878 313.767 265.878 314.093Z" fill="white"/>
</g>
<g filter="url(#filter1_f_4769_1719)">
<rect width="1.33057" height="67.4835" rx="0.665285" transform="matrix(0.998108 -0.061482 0.061774 0.99809 279.184 150.383)" fill="white"/>
</g>
<g filter="url(#filter2_f_4769_1719)">
<rect width="1.33057" height="67.4835" rx="0.665285" transform="matrix(-0.998108 -0.061482 -0.061774 0.99809 242.1 123.148)" fill="white"/>
</g>
</g>
<path d="M262.218 100.591C338.755 100.591 396.939 87.9327 396.939 72.3177C396.939 60.9507 367.922 51.1505 320.508 46.6594L203.603 46.6902C156.364 51.1952 127.496 60.9766 127.496 72.3177C127.496 87.9327 185.68 100.591 262.218 100.591Z" fill="#8521E0"/>
<path d="M262.218 100.591C338.755 100.591 396.939 87.9327 396.939 72.3177C396.939 60.9507 367.922 51.1505 320.508 46.6594L203.603 46.6902C156.364 51.1952 127.496 60.9766 127.496 72.3177C127.496 87.9327 185.68 100.591 262.218 100.591Z" fill="#C58CFE"/>
<path d="M392.088 71.6536C392.088 73.2123 391.275 74.7953 389.591 76.3894C387.907 77.9836 385.396 79.5451 382.116 81.0472C375.559 84.05 366.039 86.7668 354.237 89.053C330.64 93.6238 298.019 96.4543 261.973 96.4543C225.926 96.4543 193.306 93.6238 169.709 89.053C157.906 86.7668 148.387 84.05 141.83 81.0472C138.55 79.5451 136.039 77.9836 134.355 76.3894C132.671 74.7953 131.857 73.2123 131.857 71.6536C131.857 69.3858 133.588 67.0662 137.144 64.7761C140.674 62.5024 145.87 60.347 152.489 58.3723C165.717 54.4262 184.515 51.235 206.75 49.2207L316.89 49.1931C339.208 51.2012 358.082 54.3936 371.366 58.3452C378.013 60.3228 383.232 62.4821 386.778 64.7606C390.35 67.0555 392.088 69.3805 392.088 71.6536Z" fill="#A241FF" stroke="#8521E0"/>
<path d="M320.562 58.7746C320.562 68.4983 294.571 73.3602 262.51 73.3602C230.449 73.3602 204.459 68.4983 204.459 58.7746C204.459 26.5529 230.449 0.432129 262.51 0.432129C294.571 0.432129 320.562 26.5529 320.562 58.7746Z" fill="#C58CFE"/>
<defs>
<filter id="filter0_f_4769_1719" x="257.668" y="310.688" width="10.4331" height="5.77226" filterUnits="userSpaceOnUse" color-interpolation-filters="sRGB">
<feFlood flood-opacity="0" result="BackgroundImageFix"/>
<feBlend mode="normal" in="SourceGraphic" in2="BackgroundImageFix" result="shape"/>
<feGaussianBlur stdDeviation="1.11122" result="effect1_foregroundBlur_4769_1719"/>
</filter>
<filter id="filter1_f_4769_1719" x="274.778" y="145.896" width="14.3077" height="76.2469" filterUnits="userSpaceOnUse" color-interpolation-filters="sRGB">
<feFlood flood-opacity="0" result="BackgroundImageFix"/>
<feBlend mode="normal" in="SourceGraphic" in2="BackgroundImageFix" result="shape"/>
<feGaussianBlur stdDeviation="2.22243" result="effect1_foregroundBlur_4769_1719"/>
</filter>
<filter id="filter2_f_4769_1719" x="232.198" y="118.661" width="14.3077" height="76.2469" filterUnits="userSpaceOnUse" color-interpolation-filters="sRGB">
<feFlood flood-opacity="0" result="BackgroundImageFix"/>
<feBlend mode="normal" in="SourceGraphic" in2="BackgroundImageFix" result="shape"/>
<feGaussianBlur stdDeviation="2.22243" result="effect1_foregroundBlur_4769_1719"/>
</filter>
<linearGradient id="paint0_linear_4769_1719" x1="263.32" y1="33.6423" x2="263.32" y2="404.043" gradientUnits="userSpaceOnUse">
<stop stop-color="#FEF9C3"/>
<stop offset="1" stop-color="#FEFCE8" stop-opacity="0"/>
</linearGradient>
<linearGradient id="paint1_linear_4769_1719" x1="253.028" y1="95.987" x2="243.516" y2="320.796" gradientUnits="userSpaceOnUse">
<stop stop-color="#FACC15" stop-opacity="0.1"/>
<stop offset="1" stop-color="#FFFDE9" stop-opacity="0"/>
</linearGradient>
<linearGradient id="paint2_linear_4769_1719" x1="273.245" y1="95.987" x2="282.758" y2="320.796" gradientUnits="userSpaceOnUse">
<stop stop-color="#FACC15" stop-opacity="0.1"/>
<stop offset="1" stop-color="#FFFDE9" stop-opacity="0"/>
</linearGradient>
<linearGradient id="paint3_linear_4769_1719" x1="263.967" y1="382.771" x2="236.927" y2="337.903" gradientUnits="userSpaceOnUse">
<stop stop-color="white"/>
<stop offset="1" stop-color="#E5E7EB"/>
</linearGradient>
<linearGradient id="paint4_linear_4769_1719" x1="302.469" y1="297.927" x2="274.524" y2="349.734" gradientUnits="userSpaceOnUse">
<stop stop-color="white"/>
<stop offset="1" stop-color="#E5E7EB"/>
</linearGradient>
<linearGradient id="paint5_linear_4769_1719" x1="224.027" y1="297.927" x2="251.972" y2="349.734" gradientUnits="userSpaceOnUse">
<stop stop-color="white"/>
<stop offset="1" stop-color="#E5E7EB"/>
</linearGradient>
<linearGradient id="paint6_linear_4769_1719" x1="262.507" y1="265.607" x2="262.507" y2="382.071" gradientUnits="userSpaceOnUse">
<stop stop-color="#F3F4F6"/>
<stop offset="1" stop-color="#E5E7EB"/>
</linearGradient>
<linearGradient id="paint7_linear_4769_1719" x1="265.296" y1="266.072" x2="265.296" y2="285.832" gradientUnits="userSpaceOnUse">
<stop stop-color="#E5E7EB"/>
<stop offset="1" stop-color="#9CA3AF"/>
</linearGradient>
<linearGradient id="paint8_linear_4769_1719" x1="265.296" y1="266.072" x2="265.296" y2="285.832" gradientUnits="userSpaceOnUse">
<stop stop-color="#E5E7EB"/>
<stop offset="1" stop-color="#9CA3AF"/>
</linearGradient>
<clipPath id="clip0_4769_1719">
<rect width="16.3847" height="16.3458" fill="white" transform="matrix(-1 0 0 1 123.258 90.5676)"/>
</clipPath>
</defs>
</svg>
